<svg xmlns="http://www.w3.org/2000/svg" viewBox="0 0 332.89 143"><defs><style>.cls-1,.cls-3{fill:#fff;}.cls-2{fill:#110c79;}.cls-3{font-size:89.62px;font-family:ArialMT, Arial;}</style></defs><title>logo-bca</title><g id="Camada_2" data-name="Camada 2"><g id="Camada_1-2" data-name="Camada 1"><polygon class="cls-1" points="310.27 143 95.89 143 118.5 0 332.89 0 310.27 143"/><path class="cls-2" d="M122,36.75h25.64a74.12,74.12,0,0,1,11.36.63A16.7,16.7,0,0,1,165.7,40a16.47,16.47,0,0,1,4.92,5.36,14.52,14.52,0,0,1,2,7.5,15.21,15.21,0,0,1-9,13.92,16.88,16.88,0,0,1,9,5.82,15.45,15.45,0,0,1,3.15,9.67,19.06,19.06,0,0,1-2,8.51,17.14,17.14,0,0,1-5.56,6.61,18.34,18.34,0,0,1-8.69,3q-3.24.35-15.62.44H122Zm13,10.68V62.26h8.49q7.57,0,9.41-.22a8.56,8.56,0,0,0,5.23-2.3,6.77,6.77,0,0,0,1.9-5,7,7,0,0,0-1.64-4.83,7.43,7.43,0,0,0-4.88-2.25q-1.93-.22-11.07-.22Zm0,25.51V90.09h12a58.63,58.63,0,0,0,8.88-.39,8,8,0,0,0,4.7-2.56,7.88,7.88,0,0,0,1.82-5.45,8.37,8.37,0,0,0-1.4-4.9,7.92,7.92,0,0,0-4-2.93q-2.65-.92-11.49-.92Z"/><path class="cls-2" d="M227.72,77.31l12.56,4q-2.89,10.5-9.61,15.6t-17,5.1q-12.78,0-21-8.73T184.4,69.39q0-16,8.27-24.88t21.75-8.86q11.77,0,19.12,7,4.38,4.11,6.56,11.81l-12.82,3.06a13.25,13.25,0,0,0-13.52-10.76,14.59,14.59,0,0,0-11.57,5.12q-4.44,5.12-4.44,16.58,0,12.16,4.38,17.33a14.21,14.21,0,0,0,11.38,5.16,13,13,0,0,0,8.88-3.28Q226.11,84.35,227.72,77.31Z"/><path class="cls-2" d="M309.24,100.89H295.15l-5.6-14.57H263.91l-5.29,14.57H244.88l25-64.15h13.7ZM285.4,75.51l-8.84-23.8-8.66,23.8Z"/><text class="cls-3" transform="translate(0 102.03)">RI</text></g></g></svg>